# xmcd CD database file
#
# Track frame offsets:
#	150
#	12535
#	22548
#	34713
#	49780
#	62779
#	74906
#	88590
#	102865
#	118235
#	130022
#	140969
#	153209
#	165598
#	176507
#	188100
#	200070
#	212591
#	225188
#	238115
#	251656
#	265353
#	279142
#	295894
#	309853
#
# Disc length: 4326 seconds
#
# Revision: 0
# Processed by: cddbd v1.5.2PL0 Copyright (c) Steve Scherf et al.
# Submitted via: CDex 1.51
#
DISCID=6310e419
DTITLE=Dinah Washington - The Essence of Dinah Washington
DYEAR=2006
DGENRE=Blues
TTITLE0=I'll Never Be Free
TTITLE1=Wheel Of Fortune
TTITLE2=Hey Good Looking
TTITLE3=Cold Cold Heart
TTITLE4=I Wanna Be Loved
TTITLE5=My Heart Cries For You
TTITLE6=Harbor Lights
TTITLE7=I'm So Lonesome I Could Cry
TTITLE8=I Won't Cry Anymore
TTITLE9=New Blow-Top Blues
TTITLE10=Fat Daddy
TTITLE11=Remember Me (I'm The One Who Loves You)
TTITLE12=Teach Me Tonight
TTITLE13=The Show Must Go On
TTITLE14=No! (You Can't Have Him)
TTITLE15=I'm Lost Without You Tonight
TTITLE16=Look To The Rainbow
TTITLE17=You Might Have Told Me
TTITLE18=That's All I Want From You
TTITLE19=I Thought About You
TTITLE20=I Concentrate On You
TTITLE21=I Diddle
TTITLE22=Make Me A Present Of You
TTITLE23=My Old Flame
TTITLE24=Ask A Woman Who Knows
EXTD=YEAR: 2006
EXTT0=
EXTT1=
EXTT2=
EXTT3=
EXTT4=
EXTT5=
EXTT6=
EXTT7=
EXTT8=
EXTT9=
EXTT10=
EXTT11=
EXTT12=
EXTT13=
EXTT14=
EXTT15=
EXTT16=
EXTT17=
EXTT18=
EXTT19=
EXTT20=
EXTT21=
EXTT22=
EXTT23=
EXTT24=
PLAYORDER=
